{
  "accessors": [
    {
      "bufferView": 2,
      "componentType": 5126,
      "count": 88,
      "max": [
        150.44520568847656,
        158.67840576171875,
        -2.2170000076293945
      ],
      "min": [
        147.47760009765625,
        155.764892578125,
        -5.176300048828125
      ],
      "type": "VEC3"
    },
    {
      "bufferView": 2,
      "byteOffset": 1056,
      "componentType": 5126,
      "count": 88,
      "max": [
        0.9998390078544617,
        1.0,
        0.9998382925987244
      ],
      "min": [
        -0.9998390078544617,
        -1.0,
        -0.9998382925987244
      ],
      "type": "VEC3"
    },
    {
      "bufferView": 1,
      "componentType": 5126,
      "count": 88,
      "max": [
        5.785200119018555,
        2.698199987411499
      ],
      "min": [
        0.5098000168800354,
        0.7544000148773193
      ],
      "type": "VEC2"
    },
    {
      "bufferView": 0,
      "componentType": 5125,
      "count": 150,
      "type": "SCALAR"
    },
    {
      "bufferView": 2,
      "byteOffset": 2112,
      "componentType": 5126,
      "count": 622,
      "max": [
        150.1614990234375,
        170.3697967529297,
        9.415800094604492
      ],
      "min": [
        130.35890197753906,
        143.0260009765625,
        -11.507800102233887
      ],
      "type": "VEC3"
    },
    {
      "bufferView": 2,
      "byteOffset": 9576,
      "componentType": 5126,
      "count": 622,
      "max": [
        1.0,
        0.9986134767532349,
        1.0
      ],
      "min": [
        -1.0,
        -0.9986109137535095,
        -1.0
      ],
      "type": "VEC3"
    },
    {
      "bufferView": 1,
      "byteOffset": 704,
      "componentType": 5126,
      "count": 622,
      "max": [
        0.4950999915599823,
        1.4350999593734741
      ],
      "min": [
        0.007499999832361937,
        -2.8573999404907227
      ],
      "type": "VEC2"
    },
    {
      "bufferView": 0,
      "byteOffset": 600,
      "componentType": 5125,
      "count": 1866,
      "type": "SCALAR"
    },
    {
      "bufferView": 2,
      "byteOffset": 17040,
      "componentType": 5126,
      "count": 1180,
      "max": [
        132.69459533691406,
        197.18699645996094,
        61.68550109863281
      ],
      "min": [
        -132.6875,
        -170.52679443359375,
        -51.31639862060547
      ],
      "type": "VEC3"
    },
    {
      "bufferView": 2,
      "byteOffset": 31200,
      "componentType": 5126,
      "count": 1180,
      "max": [
        1.0,
        1.0,
        1.0
      ],
      "min": [
        -1.0,
        -1.0,
        -1.0
      ],
      "type": "VEC3"
    },
    {
      "bufferView": 1,
      "byteOffset": 5680,
      "componentType": 5126,
      "count": 1180,
      "max": [
        0.9970999956130981,
        -0.002899999963119626
      ],
      "min": [
        0.003000000026077032,
        -0.9980000257492065
      ],
      "type": "VEC2"
    },
    {
      "bufferView": 0,
      "byteOffset": 8064,
      "componentType": 5125,
      "count": 2820,
      "type": "SCALAR"
    },
    {
      "bufferView": 2,
      "byteOffset": 45360,
      "componentType": 5126,
      "count": 3113,
      "max": [
        136.2675018310547,
        177.43150329589844,
        73.81590270996094
      ],
      "min": [
        -136.26040649414063,
        -183.03759765625,
        -53.724300384521484
      ],
      "type": "VEC3"
    },
    {
      "bufferView": 2,
      "byteOffset": 82716,
      "componentType": 5126,
      "count": 3113,
      "max": [
        1.0,
        1.0,
        1.0
      ],
      "min": [
        -1.0,
        -1.0,
        -1.0
      ],
      "type": "VEC3"
    },
    {
      "bufferView": 1,
      "byteOffset": 15120,
      "componentType": 5126,
      "count": 3113,
      "max": [
        0.9970999956130981,
        -0.002899999963119626
      ],
      "min": [
        0.0010000000474974513,
        -0.9980000257492065
      ],
      "type": "VEC2"
    },
    {
      "bufferView": 0,
      "byteOffset": 19344,
      "componentType": 5125,
      "count": 7554,
      "type": "SCALAR"
    },
    {
      "bufferView": 2,
      "byteOffset": 120072,
      "componentType": 5126,
      "count": 2832,
      "max": [
        129.08670043945313,
        216.13330078125,
        52.70309829711914
      ],
      "min": [
        -129.07940673828125,
        -191.7469940185547,
        -51.28630065917969
      ],
      "type": "VEC3"
    },
    {
      "bufferView": 2,
      "byteOffset": 154056,
      "componentType": 5126,
      "count": 2832,
      "max": [
        1.0,
        1.0,
        1.0
      ],
      "min": [
        -1.0,
        -1.0,
        -1.0
      ],
      "type": "VEC3"
    },
    {
      "bufferView": 1,
      "byteOffset": 40024,
      "componentType": 5126,
      "count": 2832,
      "max": [
        0.9984999895095825,
        -0.004900000058114529
      ],
      "min": [
        0.0024999999441206455,
        -0.9970999956130981
      ],
      "type": "VEC2"
    },
    {
      "bufferView": 0,
      "byteOffset": 49560,
      "componentType": 5125,
      "count": 7014,
      "type": "SCALAR"
    },
    {
      "bufferView": 2,
      "byteOffset": 188040,
      "componentType": 5126,
      "count": 1451,
      "max": [
        138.15310668945313,
        216.1143035888672,
        61.68149948120117
      ],
      "min": [
        -138.14599609375,
        -180.8950958251953,
        -41.023101806640625
      ],
      "type": "VEC3"
    },
    {
      "bufferView": 2,
      "byteOffset": 205452,
      "componentType": 5126,
      "count": 1451,
      "max": [
        1.0,
        1.0,
        1.0
      ],
      "min": [
        -1.0,
        -1.0,
        -1.0
      ],
      "type": "VEC3"
    },
    {
      "bufferView": 1,
      "byteOffset": 62680,
      "componentType": 5126,
      "count": 1451,
      "max": [
        0.9980000257492065,
        0.0
      ],
      "min": [
        0.002199999988079071,
        -0.9961000084877014
      ],
      "type": "VEC2"
    },
    {
      "bufferView": 0,
      "byteOffset": 77616,
      "componentType": 5125,
      "count": 3960,
      "type": "SCALAR"
    },
    {
      "bufferView": 2,
      "byteOffset": 222864,
      "componentType": 5126,
      "count": 16,
      "max": [
        128.970703125,
        -25.934900283813477,
        66.73560333251953
      ],
      "min": [
        -131.03289794921875,
        -165.82530212402344,
        -55.32820129394531
      ],
      "type": "VEC3"
    },
    {
      "bufferView": 2,
      "byteOffset": 223056,
      "componentType": 5126,
      "count": 16,
      "max": [
        0.32688602805137634,
        -0.9449622631072998,
        0.19880537688732147
      ],
      "min": [
        -0.32151755690574646,
        -0.9873620867729187,
        -0.1584838181734085
      ],
      "type": "VEC3"
    },
    {
      "bufferView": 1,
      "byteOffset": 74288,
      "componentType": 5126,
      "count": 16,
      "max": [
        0.2498999983072281,
        0.0
      ],
      "min": [
        9.999999747378752e-05,
        -0.25
      ],
      "type": "VEC2"
    },
    {
      "bufferView": 0,
      "byteOffset": 93456,
      "componentType": 5125,
      "count": 24,
      "type": "SCALAR"
    }
  ],
  "asset": {
    "extras": {
      "author": "lightwarrior (https://sketchfab.com/user3754564)",
      "license": "CC-BY-4.0 (http://creativecommons.org/licenses/by/4.0/)",
      "source": "https://sketchfab.com/3d-models/defender-class-light-corvette-9e4a1e2636824f57a558d2e20100d29a",
      "title": "Defender-class Light Corvette"
    },
    "generator": "Sketchfab-14.1.2",
    "version": "2.0"
  },
  "bufferViews": [
    {
      "buffer": 0,
      "byteLength": 93552,
      "name": "floatBufferViews",
      "target": 34963
    },
    {
      "buffer": 0,
      "byteLength": 74416,
      "byteOffset": 93552,
      "byteStride": 8,
      "name": "floatBufferViews",
      "target": 34962
    },
    {
      "buffer": 0,
      "byteLength": 223248,
      "byteOffset": 167968,
      "byteStride": 12,
      "name": "floatBufferViews",
      "target": 34962
    }
  ],
  "buffers": [
    {
      "byteLength": 391216,
      "uri": "scene.bin"
    }
  ],
  "images": [
    {
      "uri": "textures/2c9697e9_dds_baseColor.png"
    },
    {
      "uri": "textures/387cc919_dds_baseColor.png"
    },
    {
      "uri": "textures/39b5ed6e_dds_baseColor.png"
    },
    {
      "uri": "textures/3bac8470_dds_baseColor.png"
    },
    {
      "uri": "textures/3bac8470_dds_emissive.png"
    },
    {
      "uri": "textures/49a0a6e9_dds_baseColor.png"
    },
    {
      "uri": "textures/a91f0c9a_dds_baseColor.png"
    },
    {
      "uri": "textures/bcdc65eb_dds_baseColor.png"
    }
  ],
  "materials": [
    {
      "doubleSided": true,
      "name": "2c9697e9_dds",
      "pbrMetallicRoughness": {
        "baseColorTexture": {
          "index": 0
        },
        "metallicFactor": 0.0,
        "roughnessFactor": 0.6
      }
    },
    {
      "doubleSided": true,
      "name": "387cc919_dds",
      "pbrMetallicRoughness": {
        "baseColorTexture": {
          "index": 1
        },
        "roughnessFactor": 0.6
      }
    },
    {
      "doubleSided": true,
      "name": "39b5ed6e_dds",
      "pbrMetallicRoughness": {
        "baseColorTexture": {
          "index": 2
        },
        "roughnessFactor": 0.6
      }
    },
    {
      "doubleSided": true,
      "emissiveFactor": [
        1.0,
        1.0,
        1.0
      ],
      "emissiveTexture": {
        "index": 4
      },
      "name": "3bac8470_dds",
      "pbrMetallicRoughness": {
        "baseColorTexture": {
          "index": 3
        },
        "roughnessFactor": 0.6
      }
    },
    {
      "doubleSided": true,
      "name": "49a0a6e9_dds",
      "pbrMetallicRoughness": {
        "baseColorTexture": {
          "index": 5
        },
        "roughnessFactor": 0.6
      }
    },
    {
      "alphaMode": "BLEND",
      "doubleSided": true,
      "emissiveFactor": [
        1.0,
        1.0,
        1.0
      ],
      "emissiveTexture": {
        "index": 6
      },
      "name": "a91f0c9a_dds",
      "pbrMetallicRoughness": {
        "baseColorFactor": [
          1.0,
          1.0,
          1.0,
          0.0
        ],
        "baseColorTexture": {
          "index": 6
        },
        "metallicFactor": 0.0,
        "roughnessFactor": 0.6
      }
    },
    {
      "doubleSided": true,
      "name": "bcdc65eb_dds",
      "pbrMetallicRoughness": {
        "baseColorTexture": {
          "index": 7
        },
        "roughnessFactor": 0.6
      }
    }
  ],
  "meshes": [
    {
      "name": "Object_0",
      "primitives": [
        {
          "attributes": {
            "NORMAL": 1,
            "POSITION": 0,
            "TEXCOORD_0": 2
          },
          "indices": 3,
          "material": 5,
          "mode": 4
        }
      ]
    },
    {
      "name": "Object_1",
      "primitives": [
        {
          "attributes": {
            "NORMAL": 5,
            "POSITION": 4,
            "TEXCOORD_0": 6
          },
          "indices": 7,
          "material": 4,
          "mode": 4
        }
      ]
    },
    {
      "name": "Object_2",
      "primitives": [
        {
          "attributes": {
            "NORMAL": 9,
            "POSITION": 8,
            "TEXCOORD_0": 10
          },
          "indices": 11,
          "material": 2,
          "mode": 4
        }
      ]
    },
    {
      "name": "Object_3",
      "primitives": [
        {
          "attributes": {
            "NORMAL": 13,
            "POSITION": 12,
            "TEXCOORD_0": 14
          },
          "indices": 15,
          "material": 1,
          "mode": 4
        }
      ]
    },
    {
      "name": "Object_4",
      "primitives": [
        {
          "attributes": {
            "NORMAL": 17,
            "POSITION": 16,
            "TEXCOORD_0": 18
          },
          "indices": 19,
          "material": 3,
          "mode": 4
        }
      ]
    },
    {
      "name": "Object_5",
      "primitives": [
        {
          "attributes": {
            "NORMAL": 21,
            "POSITION": 20,
            "TEXCOORD_0": 22
          },
          "indices": 23,
          "material": 6,
          "mode": 4
        }
      ]
    },
    {
      "name": "Object_6",
      "primitives": [
        {
          "attributes": {
            "NORMAL": 25,
            "POSITION": 24,
            "TEXCOORD_0": 26
          },
          "indices": 27,
          "material": 0,
          "mode": 4
        }
      ]
    }
  ],
  "nodes": [
    {
      "children": [
        1
      ],
      "matrix": [
        1.0,
        0.0,
        0.0,
        0.0,
        0.0,
        2.220446049250313e-16,
        -1.0,
        0.0,
        0.0,
        1.0,
        2.220446049250313e-16,
        0.0,
        0.0,
        0.0,
        0.0,
        1.0
      ],
      "name": "Sketchfab_model"
    },
    {
      "children": [
        2,
        3,
        4,
        5,
        6,
        7,
        8
      ],
      "name": "Defender-class light corvette.obj.cleaner.materialmerger.gles"
    },
    {
      "mesh": 0,
      "name": "Object_2"
    },
    {
      "mesh": 1,
      "name": "Object_3"
    },
    {
      "mesh": 2,
      "name": "Object_4"
    },
    {
      "mesh": 3,
      "name": "Object_5"
    },
    {
      "mesh": 4,
      "name": "Object_6"
    },
    {
      "mesh": 5,
      "name": "Object_7"
    },
    {
      "mesh": 6,
      "name": "Object_8"
    }
  ],
  "samplers": [
    {
      "magFilter": 9729,
      "minFilter": 9987,
      "wrapS": 10497,
      "wrapT": 10497
    }
  ],
  "scene": 0,
  "scenes": [
    {
      "name": "Sketchfab_Scene",
      "nodes": [
        0
      ]
    }
  ],
  "textures": [
    {
      "sampler": 0,
      "source": 0
    },
    {
      "sampler": 0,
      "source": 1
    },
    {
      "sampler": 0,
      "source": 2
    },
    {
      "sampler": 0,
      "source": 3
    },
    {
      "sampler": 0,
      "source": 4
    },
    {
      "sampler": 0,
      "source": 5
    },
    {
      "sampler": 0,
      "source": 6
    },
    {
      "sampler": 0,
      "source": 7
    }
  ]
}
